<svg width="20" height="20" viewBox="0 0 20 20" fill="none" xmlns="http://www.w3.org/2000/svg">
<path d="M17.6562 20H2.34375C1.05133 20 0 18.9487 0 17.6562V2.34375C0 1.05133 1.05133 0 2.34375 0H17.6562C18.9487 0 20 1.05133 20 2.34375V17.6562C20 18.9487 18.9487 20 17.6562 20ZM2.34375 1.5625C1.91299 1.5625 1.5625 1.91299 1.5625 2.34375V17.6562C1.5625 18.087 1.91299 18.4375 2.34375 18.4375H17.6562C18.087 18.4375 18.4375 18.087 18.4375 17.6562V2.34375C18.4375 1.91299 18.087 1.5625 17.6562 1.5625H2.34375ZM16.832 5.91187L15.6679 4.86938L8.44269 12.9384L4.24927 8.95218L3.17276 10.0845L8.53287 15.1801L16.832 5.91187Z" fill="#808080"/>
</svg>
