<svg aria-hidden="true" style="position: absolute; width: 0; height: 0; overflow: hidden;" version="1.1" xmlns="http://www.w3.org/2000/svg" xmlns:xlink="http://www.w3.org/1999/xlink">
<defs>

<symbol id="icon-more" viewBox="0 0 72 32">
<path fill="#fff" style="fill: var(--color1, #fff)" opacity="0.8" d="M35.781 30.121l-34.234-29.618 68.44-0.034-34.205 29.652z"></path>
</symbol>
<symbol id="icon-menu-grey" viewBox="0 0 32 32">
<path fill="#898989" style="fill: var(--color2, #898989)" d="M30.667 14.694h-29.333c-0.736 0-1.333 0.597-1.333 1.333s0.597 1.333 1.333 1.333h29.333c0.736 0 1.333-0.597 1.333-1.333s-0.597-1.333-1.333-1.333z"></path>
<path fill="#898989" style="fill: var(--color2, #898989)" d="M30.667 24.917h-29.333c-0.736 0-1.333 0.597-1.333 1.333s0.597 1.333 1.333 1.333h29.333c0.736 0 1.333-0.597 1.333-1.333s-0.597-1.333-1.333-1.333z"></path>
<path fill="#898989" style="fill: var(--color2, #898989)" d="M30.667 4.472h-29.333c-0.736 0-1.333 0.597-1.333 1.333s0.597 1.333 1.333 1.333h29.333c0.736 0 1.333-0.597 1.333-1.333s-0.597-1.333-1.333-1.333z"></path>
</symbol>
<symbol id="icon-left-arrow-in-circular-button-black-symbol-1" viewBox="0 0 32 32">
<path fill="#fff" style="fill: var(--color1, #fff)" d="M16 0c-8.837 0-16 7.163-16 16 0 8.836 7.163 16 16 16s16-7.164 16-16c0-8.837-7.163-16-16-16zM23 17h-10.586l4.121 4.121c0.391 0.391 0.391 1.024 0 1.414-0.391 0.391-1.024 0.391-1.414 0l-5.657-5.657c-0.239-0.239-0.314-0.568-0.259-0.878-0.055-0.31 0.020-0.639 0.26-0.879l5.657-5.657c0.391-0.391 1.024-0.391 1.414 0s0.391 1.024 0 1.414l-4.122 4.122h10.586c0.552 0 1 0.448 1 1s-0.448 1-1 1z"></path>
</symbol>
<symbol id="icon-double-right-arrows-angles-6" viewBox="0 0 32 32">
<path d="M16.009 16.784c-0.377-0.025-0.761 0.094-1.046 0.386l-11.74 12.025c-0.518 0.531-0.508 1.381 0.021 1.901s1.379 0.51 1.898-0.021l10.902-11.166 11.148 10.92c0.53 0.519 1.379 0.51 1.897-0.021s0.508-1.381-0.021-1.901l-12.005-11.76c-0.291-0.286-0.676-0.395-1.053-0.363zM14.783 1.043l-14.393 14.743c-0.518 0.531-0.508 1.381 0.021 1.901s1.38 0.51 1.897-0.021l13.556-13.885 13.861 13.579c0.53 0.519 1.379 0.51 1.898-0.021 0.518-0.531 0.509-1.381-0.021-1.901l-14.718-14.417c-0.291-0.286-0.678-0.395-1.055-0.361-0.378-0.027-0.762 0.092-1.046 0.383z"></path>
</symbol>
<symbol id="icon-menu-white" viewBox="0 0 32 32">
<path fill="#fff" style="fill: var(--color1, #fff)" d="M30.667 14.694h-29.333c-0.736 0-1.333 0.597-1.333 1.333s0.597 1.333 1.333 1.333h29.333c0.736 0 1.333-0.597 1.333-1.333s-0.597-1.333-1.333-1.333z"></path>
<path fill="#fff" style="fill: var(--color1, #fff)" d="M30.667 24.917h-29.333c-0.736 0-1.333 0.597-1.333 1.333s0.597 1.333 1.333 1.333h29.333c0.736 0 1.333-0.597 1.333-1.333s-0.597-1.333-1.333-1.333z"></path>
<path fill="#fff" style="fill: var(--color1, #fff)" d="M30.667 4.472h-29.333c-0.736 0-1.333 0.597-1.333 1.333s0.597 1.333 1.333 1.333h29.333c0.736 0 1.333-0.597 1.333-1.333s-0.597-1.333-1.333-1.333z"></path>
</symbol>
<symbol id="icon-plus" viewBox="0 0 32 32">
<path d="M30.4 14.4h-12.8v-12.8c0-0.883-0.717-1.6-1.6-1.6s-1.6 0.717-1.6 1.6v12.8h-12.8c-0.883 0-1.6 0.717-1.6 1.6s0.717 1.6 1.6 1.6h12.8v12.8c0 0.883 0.717 1.6 1.6 1.6s1.6-0.717 1.6-1.6v-12.8h12.8c0.883 0 1.6-0.717 1.6-1.6s-0.717-1.6-1.6-1.6z"></path>
</symbol>
<symbol id="icon-close" viewBox="0 0 32 32">
<path d="M1.658 32c-0.422 0-0.843-0.16-1.163-0.483-0.643-0.643-0.643-1.685 0-2.328l28.707-28.707c0.643-0.643 1.685-0.643 2.328 0s0.643 1.685 0 2.329l-28.706 28.706c-0.323 0.321-0.744 0.483-1.165 0.483z"></path>
<path d="M30.366 32c-0.422 0-0.843-0.16-1.163-0.483l-28.709-28.706c-0.643-0.643-0.643-1.686 0-2.329s1.685-0.643 2.329 0l28.706 28.707c0.643 0.643 0.643 1.685 0 2.328-0.323 0.321-0.744 0.483-1.163 0.483z"></path>
</symbol>

<symbol id="icon-instagram-white" viewBox="0 0 32 32">
<path fill="#fff" style="fill: var(--color1, #fff)" d="M16 10.419c-3.619 0-5.581 2.977-5.581 5.644 0 3.286 2.977 5.519 5.581 5.519 3.349 0 5.581-2.977 5.581-5.519 0-2.667-1.963-5.644-5.581-5.644zM16 10.419c-3.619 0-5.581 2.977-5.581 5.644 0 3.286 2.977 5.519 5.581 5.519 3.349 0 5.581-2.977 5.581-5.519 0-2.667-1.963-5.644-5.581-5.644zM27.313 0h-22.625c-2.587 0-4.688 2.1-4.688 4.688v22.625c0 2.587 2.1 4.687 4.688 4.687h22.625c2.587 0 4.687-2.1 4.687-4.687v-22.625c0-2.587-2.1-4.688-4.687-4.688zM16 24.93c-4.65 0-8.93-4.218-8.93-8.868s4.28-8.993 8.93-8.993 8.93 4.343 8.93 8.993c0 4.65-4.28 8.868-8.93 8.868zM26.313 7.625c-1.031 0-1.875-0.844-1.875-1.875s0.844-1.875 1.875-1.875c1.031 0 1.875 0.844 1.875 1.875s-0.844 1.875-1.875 1.875zM16 10.419c-3.619 0-5.581 2.977-5.581 5.644 0 3.286 2.977 5.519 5.581 5.519 3.349 0 5.581-2.977 5.581-5.519 0-2.667-1.963-5.644-5.581-5.644zM16 10.419c-3.619 0-5.581 2.977-5.581 5.644 0 3.286 2.977 5.519 5.581 5.519 3.349 0 5.581-2.977 5.581-5.519 0-2.667-1.963-5.644-5.581-5.644zM16 10.419c-3.619 0-5.581 2.977-5.581 5.644 0 3.286 2.977 5.519 5.581 5.519 3.349 0 5.581-2.977 5.581-5.519 0-2.667-1.963-5.644-5.581-5.644z"></path>
</symbol>
<symbol id="icon-facebook-white" viewBox="0 0 32 32">
<path fill="#fff" style="fill: var(--color1, #fff)" d="M27.313 0h-22.625c-2.584 0-4.688 2.103-4.688 4.688v22.625c0 2.584 2.103 4.687 4.688 4.687h9.438v-11.313h-3.75v-5.625h3.75v-3.813c0-3.102 2.523-5.625 5.625-5.625h5.688v5.625h-5.688v3.813h5.688l-0.938 5.625h-4.75v11.313h7.563c2.584 0 4.687-2.103 4.687-4.687v-22.625c0-2.584-2.103-4.688-4.687-4.688z"></path>
</symbol>
<symbol id="icon-instagram-grey" viewBox="0 0 32 32">
<path fill="#808080" style="fill: var(--color3, #808080)" d="M24.5 32h-17c-4.136 0-7.5-3.364-7.5-7.5v-17c0-4.136 3.365-7.5 7.5-7.5h17c4.136 0 7.5 3.365 7.5 7.5v17c0 4.136-3.364 7.5-7.5 7.5zM7.5 2.5c-2.757 0-5 2.243-5 5v17c0 2.757 2.243 5 5 5h17c2.757 0 5-2.243 5-5v-17c0-2.757-2.243-5-5-5h-17zM24.813 5.625c-0.863 0-1.562 0.7-1.562 1.563s0.7 1.562 1.562 1.562c0.863 0 1.562-0.7 1.562-1.562s-0.7-1.563-1.562-1.563zM16 24.125c-4.48 0-8.125-3.645-8.125-8.125 0.446-10.779 15.805-10.776 16.25 0 0 4.48-3.645 8.125-8.125 8.125zM16 10.375c-3.102 0-5.625 2.523-5.625 5.625 0.309 7.462 10.942 7.46 11.25-0 0-3.102-2.523-5.625-5.625-5.625z"></path>
</symbol>

<symbol id="icon-menu-black" viewBox="0 0 32 32">
<path d="M30.667 14.694h-29.333c-0.736 0-1.333 0.597-1.333 1.333s0.597 1.333 1.333 1.333h29.333c0.736 0 1.333-0.597 1.333-1.333s-0.597-1.333-1.333-1.333z"></path>
<path d="M30.667 24.917h-29.333c-0.736 0-1.333 0.597-1.333 1.333s0.597 1.333 1.333 1.333h29.333c0.736 0 1.333-0.597 1.333-1.333s-0.597-1.333-1.333-1.333z"></path>
<path d="M30.667 4.472h-29.333c-0.736 0-1.333 0.597-1.333 1.333s0.597 1.333 1.333 1.333h29.333c0.736 0 1.333-0.597 1.333-1.333s-0.597-1.333-1.333-1.333z"></path>
</symbol>
<symbol id="icon-russia" viewBox="0 0 32 32">
<path fill="#fff" style="fill: var(--color1, #fff)" d="M16.004 32.004c8.836 0 15.999-7.163 15.999-15.999s-7.163-15.999-15.999-15.999c-8.836 0-15.999 7.163-15.999 15.999s7.163 15.999 15.999 15.999z"></path>
<path fill="#2b479d" style="fill: var(--color4, #2b479d)" d="M31.085 10.665h-9.858c0.428 3.418 0.431 7.184 0.008 10.606h9.871c0.576-1.651 0.893-3.424 0.893-5.271 0-1.871-0.324-3.666-0.914-5.335z"></path>
<path fill="#efecec" style="fill: var(--color5, #efecec)" d="M21.227 10.665h9.858c-0.001-0.005-0.003-0.009-0.005-0.014-2.048-5.774-7.315-10.022-13.644-10.586 2.449 1.342 3.165 5.596 3.791 10.6z"></path>
<path fill="#e63026" style="fill: var(--color6, #e63026)" d="M17.437 31.933c6.34-0.565 11.615-4.828 13.655-10.617 0.005-0.015 0.010-0.031 0.015-0.046h-9.871c-0.621 5.031-1.34 9.314-3.799 10.662z"></path>
<path fill="#3757a6" style="fill: var(--color7, #3757a6)" d="M0 16c0 1.848 0.317 3.62 0.893 5.271h21.166c0.423-3.422 0.42-7.188-0.008-10.606h-21.137c-0.59 1.669-0.914 3.463-0.914 5.335z"></path>
<path fill="#efefef" style="fill: var(--color8, #efefef)" d="M0.919 10.651c-0.001 0.005-0.003 0.009-0.005 0.014h21.137c-0.627-5.004-2.166-9.257-4.614-10.6-0.474-0.042-0.953-0.066-1.437-0.066-6.96-0-12.879 4.445-15.080 10.651z"></path>
<path fill="#e73b36" style="fill: var(--color9, #e73b36)" d="M22.059 21.271h-21.166c0.005 0.015 0.010 0.030 0.015 0.045 2.192 6.222 8.12 10.683 15.091 10.683 0.485 0 0.964-0.024 1.437-0.066 2.459-1.348 4.001-5.631 4.622-10.662z"></path>
</symbol>
<symbol id="icon-spain" viewBox="0 0 32 32">
<path fill="#c42126" style="fill: var(--color10, #c42126)" d="M16 32c5.119 0 9.673-2.406 12.602-6.147h-8.427c-1.088 3.626-1.695 6.147-4.175 6.147z"></path>
<path fill="#c42126" style="fill: var(--color10, #c42126)" d="M15.050 31.973c-0.003 0-0.005-0.001-0.008-0.001 0.003 0 0.006 0.001 0.008 0.001z"></path>
<path fill="#c42126" style="fill: var(--color10, #c42126)" d="M20.175 6.147h8.427c-2.929-3.74-7.483-6.147-12.602-6.147 2.48 0 3.087 2.521 4.175 6.147z"></path>
<path fill="#c42126" style="fill: var(--color10, #c42126)" d="M15.042 0.028c0.003 0 0.005-0.001 0.008-0.001-0.003-0-0.005-0-0.008 0.001z"></path>
<path fill="#ffc40c" style="fill: var(--color11, #ffc40c)" d="M28.602 6.147h-8.427c1.701 5.669 1.701 14.038 0 19.706h8.427c2.127-2.716 3.399-6.135 3.399-9.853s-1.271-7.136-3.398-9.853z"></path>
<path fill="#c42126" style="fill: var(--color10, #c42126)" d="M16 31.999c-0.318 0-0.635-0.009-0.949-0.027 0.319 0.017 0.636 0.027 0.949 0.027z"></path>
<path fill="#c42126" style="fill: var(--color10, #c42126)" d="M15.051 0.027c0.314-0.018 0.631-0.027 0.949-0.027-0.313 0-0.63 0.010-0.949 0.027z"></path>
<path fill="#d32030" style="fill: var(--color12, #d32030)" d="M21.352 25.853h-17.953c2.744 3.506 6.917 5.84 11.643 6.119 0.003 0 0.006 0.001 0.009 0.001 0.314 0.018 0.631 0.028 0.949 0.028 2.48 0 4.264-2.521 5.352-6.147z"></path>
<path fill="#d32030" style="fill: var(--color12, #d32030)" d="M3.399 6.147h17.953c-1.088-3.626-2.872-6.147-5.352-6.147-0.318 0-0.635 0.009-0.949 0.028-0.003 0-0.006 0-0.009 0-4.727 0.279-8.899 2.613-11.643 6.119z"></path>
<path fill="#ffd034" style="fill: var(--color13, #ffd034)" d="M0 16c0 3.718 1.272 7.136 3.399 9.853h17.953c1.701-5.668 1.701-14.037 0-19.706h-17.953c-2.127 2.717-3.399 6.135-3.399 9.853z"></path>
</symbol>
<symbol id="icon-phone" viewBox="0 0 32 32">
<path fill="#808080" style="fill: var(--color3, #808080)" d="M31.129 23.485l-4.466-4.466c-1.595-1.595-4.306-0.957-4.944 1.116-0.478 1.436-2.073 2.233-3.509 1.914-3.19-0.797-7.496-4.944-8.293-8.293-0.478-1.435 0.478-3.030 1.914-3.509 2.073-0.638 2.711-3.349 1.116-4.944l-4.466-4.466c-1.276-1.116-3.19-1.116-4.306 0l-3.030 3.030c-3.030 3.19 0.319 11.643 7.815 19.139s15.949 11.005 19.139 7.815l3.030-3.030c1.116-1.276 1.116-3.19 0-4.306z"></path>
</symbol>
<symbol id="icon-whatsapp" viewBox="0 0 32 32">
<path fill="#e5e5e5" style="fill: var(--color14, #e5e5e5)" d="M0.743 32c-0.18 0-0.354-0.071-0.484-0.202-0.171-0.173-0.237-0.424-0.173-0.658l2.080-7.597c-1.295-2.342-1.978-4.992-1.977-7.681 0.004-8.746 7.121-15.862 15.867-15.862 4.242 0.002 8.228 1.654 11.224 4.652s4.644 6.984 4.643 11.222c-0.004 8.746-7.122 15.863-15.867 15.863 0 0-0.007 0-0.007 0-2.555-0.001-5.087-0.624-7.342-1.803l-7.792 2.043c-0.057 0.015-0.115 0.022-0.173 0.022z"></path>
<path fill="#64b161" style="fill: var(--color15, #64b161)" d="M1.271 30.789l2.080-7.595c-1.283-2.223-1.958-4.744-1.957-7.327 0.003-8.081 6.58-14.655 14.66-14.655 3.922 0.002 7.603 1.528 10.37 4.298s4.291 6.453 4.29 10.369c-0.003 8.081-6.58 14.656-14.659 14.656-0.001 0 0 0 0 0h-0.007c-2.453-0.001-4.864-0.617-7.005-1.784l-7.771 2.038z"></path>
<path fill="#fff" style="fill: var(--color1, #fff)" d="M0.743 31.319l2.154-7.867c-1.329-2.302-2.028-4.914-2.027-7.59 0.003-8.371 6.815-15.181 15.186-15.181 4.062 0.002 7.875 1.583 10.742 4.452s4.445 6.684 4.444 10.741c-0.004 8.371-6.817 15.182-15.186 15.182-0 0 0 0 0 0h-0.007c-2.542-0.001-5.039-0.638-7.257-1.848l-8.050 2.111zM9.166 26.46l0.461 0.273c1.938 1.15 4.159 1.758 6.424 1.759h0.005c6.957 0 12.619-5.661 12.622-12.619 0.001-3.372-1.31-6.542-3.693-8.927s-5.552-3.699-8.924-3.701c-6.962 0-12.624 5.66-12.627 12.618-0.001 2.384 0.666 4.706 1.93 6.715l0.3 0.477-1.275 4.656 4.777-1.252z"></path>
<path fill="#fff" style="fill: var(--color1, #fff)" d="M12.261 9.515c-0.284-0.632-0.584-0.645-0.854-0.656-0.221-0.009-0.474-0.009-0.727-0.009s-0.664 0.095-1.012 0.475c-0.348 0.38-1.328 1.298-1.328 3.165s1.36 3.671 1.55 3.925c0.19 0.253 2.625 4.207 6.482 5.728 3.205 1.264 3.857 1.013 4.553 0.95s2.245-0.918 2.561-1.804c0.316-0.886 0.316-1.645 0.221-1.804-0.095-0.158-0.348-0.253-0.727-0.443s-2.245-1.108-2.593-1.234c-0.348-0.127-0.601-0.19-0.854 0.19s-0.98 1.234-1.201 1.487c-0.221 0.254-0.443 0.285-0.822 0.096s-1.602-0.591-3.051-1.883c-1.128-1.006-1.89-2.248-2.111-2.628s-0.004-0.567 0.167-0.774c0.307-0.373 0.822-1.044 0.948-1.297s0.063-0.475-0.031-0.665c-0.095-0.19-0.833-2.066-1.17-2.817z"></path>
</symbol>
</defs>
</svg>
